<svg width="175" height="102" viewBox="0 0 175 102" fill="none" xmlns="http://www.w3.org/2000/svg">
<g id="a" clip-path="url(#clip0_26_270)">
<path id="Vector" d="M41.6356 18.168C42.1887 18.7198 42.4652 19.4371 42.4652 20.32V36.5843C43.0598 36.8188 43.6543 37.0809 44.2489 37.343C45.2583 37.7844 46.2538 38.2121 47.1941 38.7914C47.5259 38.9984 47.8578 39.2191 48.1758 39.4398V14.0295C47.0281 14.7744 45.7422 15.4504 44.3319 16.0435C42.9215 16.6367 41.1931 16.9816 39.1605 17.0644V17.3265H39.4924C40.3773 17.3265 41.0963 17.6024 41.6494 18.1542L41.6356 18.168Z" fill="#B370FF" stroke="#B370FF" stroke-width="0.25" stroke-miterlimit="10"/>
<path id="Vector_2" d="M43.1012 10.0427C43.6681 10.8428 44.0829 11.6567 44.3871 12.4844L44.8987 13.795L45.2582 12.6224C45.5486 11.7947 45.9773 10.967 46.5442 10.1393C47.1111 9.3116 47.7056 8.63564 48.3417 8.09764L49.1437 7.36651L48.5629 6.85609C47.9269 6.2767 47.3323 5.57316 46.7654 4.74546C46.2123 3.91776 45.7837 3.09007 45.4795 2.26237L44.8987 0.510406L44.235 2.26237C43.9862 3.09007 43.599 3.91776 43.0597 4.74546C42.5205 5.57316 41.9397 6.2767 41.3037 6.85609L40.5709 7.51825L41.2346 8.02866C41.9121 8.56667 42.5343 9.22883 43.1012 10.0289V10.0427Z" fill="#B370FF" stroke="#B370FF" stroke-width="0.25" stroke-miterlimit="10"/>
<path id="Vector_3" d="M59.8458 19.6027C59.8458 18.7198 59.5693 18.0024 59.0162 17.4506C58.4631 16.8988 57.7441 16.6229 56.8592 16.6229H56.5273V16.3608C58.5599 16.2781 60.2883 15.947 61.6987 15.3676C63.109 14.7882 64.395 14.1123 65.5426 13.3121V19.8648C66.5105 18.237 67.7273 16.8023 69.1653 15.5883C70.6033 14.3744 72.2073 13.6294 73.9771 13.3673C75.7885 13.1052 77.5445 13.1328 79.2591 13.4639C80.9598 13.795 82.467 14.4571 83.7667 15.4504C85.0664 16.4436 86.1173 17.8093 86.8916 19.5613C87.6659 21.2994 88.0531 23.4377 88.0531 25.9483V42.3644C88.0531 43.1093 88.3573 43.7852 88.9519 44.3784C89.5464 44.9716 90.2516 45.2751 91.0397 45.2751V45.6062H79.2867V45.2751C80.2131 45.2751 80.9598 45.013 81.5129 44.475C82.066 43.9508 82.3425 43.2334 82.3425 42.3506V25.6586C82.3425 21.9892 81.665 19.2578 80.3237 17.4506C78.9687 15.6435 77.2541 14.6916 75.1801 14.6089C73.2305 14.5261 71.3915 15.0779 69.6769 16.2643C67.9485 17.4506 66.5796 19.175 65.5564 21.4236V42.3506C65.5564 43.0955 65.8606 43.7714 66.4552 44.3646C67.0498 44.9578 67.7549 45.2613 68.5431 45.2613V45.5924H56.8592V45.2613C57.7441 45.2613 58.4631 44.9992 59.0162 44.4612C59.5693 43.937 59.8458 43.2196 59.8458 42.3368V19.6027Z" fill="#B370FF" stroke="#B370FF" stroke-width="0.25" stroke-miterlimit="10"/>
<path id="Vector_4" d="M122.565 43.868C120.422 44.5853 118.265 44.9992 116.053 45.082C113.799 45.1233 111.836 44.7095 110.176 43.8266C108.517 42.9437 107.148 41.7436 106.07 40.2123C104.977 38.6949 104.175 36.9705 103.65 35.053C103.125 33.1355 102.848 31.1766 102.848 29.1902C102.848 27.3416 103.069 25.5207 103.512 23.7549C103.954 21.9892 104.618 20.4166 105.503 19.0509C106.388 17.6852 107.466 16.5816 108.752 15.7401C110.038 14.8986 111.518 14.4847 113.205 14.4847C115.555 14.4847 117.436 15.2434 118.874 16.7747C120.312 18.2921 121.031 20.2096 121.031 22.4996C121.031 24.4861 120.381 26.4725 119.067 28.459C117.767 30.4455 115.652 32.0181 112.734 33.1631L105.959 35.8117L106.028 36.1428L114.186 33.8942C116.357 33.2735 118.251 32.5147 119.897 31.6043C121.528 30.6938 122.897 29.7006 123.976 28.597C125.054 27.4934 125.884 26.3622 126.437 25.1896C126.99 24.017 127.267 22.8583 127.267 21.7133C127.267 20.5683 127.004 19.4923 126.465 18.4991C125.939 17.5058 125.123 16.6229 124.045 15.8504C122.953 15.0779 121.598 14.4709 119.966 14.0295C118.334 13.588 116.426 13.3673 114.255 13.3673C112.085 13.3673 109.997 13.7812 107.978 14.6227C105.959 15.4642 104.203 16.6091 102.696 18.0714C101.189 19.5337 99.9858 21.258 99.0733 23.2721C98.1607 25.2862 97.7182 27.452 97.7182 29.7971C97.7182 32.8872 98.2713 35.522 99.3775 37.7154C100.484 39.8951 101.908 41.6608 103.664 42.9851C105.406 44.3094 107.397 45.2337 109.637 45.7717C111.877 46.2959 114.117 46.4615 116.371 46.2407C118.735 46.0338 120.962 45.482 123.063 44.6129C122.87 44.3922 122.69 44.1577 122.552 43.8956L122.565 43.868Z" fill="#B370FF" stroke="#B370FF" stroke-width="0.25" stroke-miterlimit="10"/>
<path id="Vector_5" d="M18.9453 56.7939C20.6322 56.7525 22.0011 56.6008 23.0658 56.3249C24.1305 56.0628 25.0016 55.6075 25.6929 54.9729C26.3843 54.3384 26.9374 53.4969 27.3522 52.4623C27.767 51.4276 28.1542 45.9786 28.5137 44.3784H29.5092V56.7939H36.8099V57.7871H29.5092V80.1626C29.5092 81.142 29.5092 82.1214 29.5369 83.1147C29.5645 84.1079 29.7028 85.0046 29.9655 85.7909C30.2282 86.591 30.6983 87.2394 31.362 87.7498C32.0257 88.2602 32.9798 88.5085 34.2104 88.5085C35.2751 88.5085 36.2845 88.3568 37.2662 88.0395V88.5085C35.7176 88.9913 34.086 89.2397 32.3576 89.2397C30.7675 89.2397 29.4262 89.0327 28.3477 88.6051C27.2692 88.1774 26.3843 87.6118 25.7206 86.8807C25.0569 86.1496 24.5729 85.2805 24.2549 84.2597C23.9507 83.2388 23.7848 82.1214 23.7848 80.8799V57.7733H18.9453V56.7801V56.7939Z" fill="#B370FF" stroke="#B370FF" stroke-width="0.25" stroke-miterlimit="10"/>
<path id="Vector_6" d="M57.9101 88.7154C55.5595 88.7154 53.3886 88.3154 51.3699 87.5291C49.3511 86.7428 47.6227 85.6254 46.1571 84.2183C44.6914 82.8112 43.5437 81.1006 42.7003 79.1141C41.8568 77.1277 41.442 74.9481 41.442 72.5615C41.442 70.175 41.8568 67.9816 42.7003 65.9675C43.5437 63.9535 44.6914 62.2153 46.1571 60.7392C47.6227 59.2632 49.3511 58.1182 51.3699 57.2905C53.3886 56.4766 55.5595 56.0628 57.9101 56.0628C60.2607 56.0628 62.4315 56.4766 64.4503 57.3181C66.469 58.1596 68.1974 59.3046 69.6631 60.7668C71.1288 62.2291 72.2764 63.9535 73.1199 65.9675C73.9633 67.9816 74.3781 70.175 74.3781 72.5615C74.3781 74.9481 73.9633 77.1277 73.1199 79.1141C72.2764 81.1006 71.1288 82.7974 69.6631 84.2183C68.1974 85.6392 66.469 86.729 64.4503 87.5291C62.4315 88.3292 60.2607 88.7154 57.9101 88.7154ZM69.594 76.6586C69.594 74.8101 69.2345 72.7685 68.5016 70.5613C67.7688 68.3541 66.7594 66.2986 65.4873 64.4087C64.2014 62.505 62.6942 60.9324 60.9382 59.677C59.196 58.4217 57.3017 57.7871 55.2691 57.7871C53.8034 57.7871 52.5037 58.0906 51.356 58.6838C50.2084 59.277 49.2543 60.0771 48.5077 61.0703C47.761 62.0636 47.1803 63.2085 46.7793 64.5191C46.3783 65.8158 46.1847 67.1539 46.1847 68.5196C46.1847 70.3681 46.5442 72.3822 47.2494 74.548C47.9546 76.7138 48.9363 78.7141 50.2084 80.5764C51.4667 82.4249 52.9738 83.97 54.716 85.1839C56.4582 86.3979 58.3802 87.0049 60.4543 87.0049C61.9199 87.0049 63.2058 86.729 64.3397 86.1772C65.4735 85.6254 66.4137 84.8804 67.188 83.9286C67.9624 82.9767 68.5569 81.8731 68.9856 80.6178C69.4004 79.3625 69.6216 78.0519 69.6216 76.6724L69.594 76.6586Z" fill="#B370FF" stroke="#B370FF" stroke-width="0.25" stroke-miterlimit="10"/>
<path id="Vector_7" d="M85.0526 62.7533C85.0526 61.9118 84.7622 61.2083 84.1953 60.6289C83.6146 60.0495 82.8956 59.7736 82.0106 59.7736H81.7479V59.5805C83.739 59.4425 85.4536 59.0976 86.8916 58.5183C88.3296 57.9389 89.6294 57.2629 90.777 56.4628V61.6911C91.9661 59.8426 93.4871 58.4493 95.3261 57.525C97.1651 56.6008 99.0318 56.1317 100.94 56.1317C103.332 56.1317 105.489 56.5456 107.439 57.3871C109.388 58.2286 111.061 59.3873 112.486 60.8634C113.896 62.3395 115.002 64.0914 115.776 66.0917C116.551 68.1058 116.938 70.2716 116.938 72.6167C116.938 74.9619 116.565 76.9621 115.804 78.9072C115.057 80.8523 114.007 82.5353 112.679 83.97C111.352 85.4047 109.748 86.5496 107.867 87.3773C105.987 88.2188 103.913 88.6327 101.659 88.6327C99.8891 88.6327 98.1883 88.3292 96.5429 87.7084C94.9113 87.0876 93.4456 86.1358 92.1597 84.8667L92.4916 84.3976C93.335 85.2805 94.5103 86.0254 96.0451 86.6186C97.5661 87.2118 99.1977 87.5153 100.926 87.5153C101.327 87.5153 101.728 87.4877 102.157 87.4463C102.572 87.4049 102.986 87.336 103.387 87.2532C104.355 87.0325 105.337 86.591 106.305 85.9289C107.273 85.2667 108.13 84.3424 108.863 83.1423C109.596 81.9559 110.176 80.4936 110.619 78.7693C111.061 77.0449 111.241 75.0584 111.144 72.8098C111.103 70.8234 110.84 68.9611 110.342 67.2091C109.858 65.4709 109.181 63.9259 108.324 62.6016C107.466 61.2773 106.402 60.2426 105.143 59.4839C103.885 58.739 102.447 58.3527 100.857 58.3527C98.6861 58.3527 96.7227 58.739 94.9528 59.5115C93.1829 60.284 91.7864 61.4152 90.777 62.9189V97.2821C90.777 98.3857 91.0812 99.3652 91.6758 100.234C92.2703 101.09 92.9755 101.531 93.7637 101.531V101.793H82.0106V101.531C82.8956 101.531 83.6146 101.131 84.1677 100.345C84.7207 99.5445 84.9973 98.4409 84.9973 97.0338L85.0664 62.7395L85.0526 62.7533Z" fill="#B370FF" stroke="#B370FF" stroke-width="0.25" stroke-miterlimit="10"/>
<path id="Vector_8" d="M126.741 63.0844C126.741 62.2015 126.465 61.4842 125.912 60.9324C125.359 60.3806 124.64 60.1047 123.755 60.1047H123.423V59.8426C125.455 59.7598 127.184 59.4149 128.594 58.8217C130.004 58.2286 131.29 57.5526 132.438 56.8077V85.1426C132.438 85.8875 132.742 86.5634 133.337 87.1566C133.931 87.7498 134.637 88.0533 135.425 88.0533V88.3844H123.741V88.0533C124.626 88.0533 125.345 87.7912 125.898 87.2532C126.451 86.729 126.727 86.0116 126.727 85.1288V63.0844H126.741ZM127.364 52.8761C127.93 53.6762 128.345 54.4901 128.649 55.3178L129.161 56.6283L129.521 55.4558C129.811 54.6281 130.24 53.8004 130.806 52.9727C131.373 52.145 131.968 51.469 132.604 50.931L133.406 50.1999L132.825 49.6895C132.189 49.1101 131.595 48.4066 131.028 47.5789C130.475 46.7512 130.046 45.9235 129.742 45.0958L129.161 43.3438L128.497 45.0958C128.248 45.9235 127.861 46.7512 127.322 47.5789C126.783 48.4066 126.202 49.1101 125.566 49.6895L124.833 50.3516L125.497 50.8621C126.174 51.4001 126.797 52.0622 127.364 52.8623V52.8761Z" fill="#B370FF" stroke="#B370FF" stroke-width="0.25" stroke-miterlimit="10"/>
<path id="Vector_9" d="M144.329 64.3535C143.707 63.8707 143.403 63.2775 143.403 62.5602C143.403 62.0774 143.596 61.6359 143.997 61.2359C144.62 60.6151 145.366 60.0081 146.251 59.4149C147.136 58.8217 148.187 58.2837 149.404 57.7871C150.621 57.3043 151.989 56.9042 153.524 56.6008C155.045 56.2973 156.76 56.1317 158.668 56.1317C162.954 56.1317 166.162 56.9318 168.264 58.5183C170.366 60.1047 171.417 62.4222 171.417 65.4709V84.4114C171.417 85.2943 171.5 85.9013 171.679 86.2323C171.859 86.5634 172.232 86.729 172.813 86.729C173.256 86.729 173.767 86.66 174.334 86.5358V86.729C173.587 87.3497 172.744 87.8602 171.818 88.2464C170.891 88.6465 169.979 88.8258 169.094 88.7706C168.209 88.7292 167.407 88.3982 166.674 87.7774C165.941 87.1566 165.582 86.1496 165.582 84.7287C163.812 85.9702 162 86.9911 160.134 87.805C158.281 88.6189 156.082 89.0327 153.566 89.0327C150.164 89.0327 147.44 88.2464 145.408 86.6876C143.375 85.115 142.311 82.9905 142.228 80.3005C142.186 78.6727 142.532 77.2242 143.292 75.9689C144.053 74.7136 145.062 73.6238 146.348 72.7271C147.634 71.8304 149.086 71.0717 150.731 70.4785C152.363 69.8853 154.064 69.3887 155.806 68.9886C157.548 68.5886 159.276 68.2989 160.977 68.1334C162.678 67.954 164.213 67.8299 165.595 67.7333V63.2361C165.595 60.891 164.959 59.2908 163.701 58.4355C162.443 57.5802 160.742 57.1388 158.626 57.1388C156.995 57.1388 155.585 57.3319 154.409 57.7044C153.234 58.0768 152.225 58.5872 151.353 59.2218C150.496 59.8564 149.763 60.5737 149.169 61.3462C148.574 62.1187 148.049 62.9051 147.606 63.6914C147.122 64.5742 146.5 65.0157 145.753 65.0157C145.311 65.0157 144.841 64.8226 144.357 64.4225V64.3535H144.329ZM165.568 68.4644C163.936 68.5472 162.125 68.7955 160.161 69.1956C158.198 69.5956 156.345 70.2164 154.617 71.0855C152.888 71.9408 151.45 73.0857 150.303 74.4928C149.155 75.8999 148.574 77.6519 148.574 79.7211C148.574 80.6454 148.712 81.5835 148.975 82.5353C149.238 83.4872 149.667 84.3424 150.233 85.115C150.814 85.8875 151.547 86.522 152.46 87.0325C153.372 87.5429 154.437 87.7912 155.681 87.7912C157.313 87.7912 159.027 87.4049 160.797 86.6324C162.567 85.8599 164.157 84.9494 165.582 83.8872V68.4644H165.568Z" fill="#B370FF" stroke="#B370FF" stroke-width="0.25" stroke-miterlimit="10"/>
<path id="Vector_10" d="M58.6567 52.4071C60.9935 52.3243 63.192 52.6692 65.2384 53.4279C65.4181 53.4969 65.584 53.5797 65.7638 53.6486C63.7727 52.145 61.2977 50.5448 61.2977 50.5448C31.1823 32.1147 27.8223 38.9294 25.7621 40.3641C25.7621 40.3641 22.3191 42.7644 19.4292 42.861C18.2816 42.9024 17.1201 42.723 17.1201 42.723C16.2767 42.5989 15.4609 42.3781 14.6451 42.0884C13.0964 41.5229 11.7276 40.709 10.5108 39.6467C8.72709 38.0741 7.5103 36.2394 6.90191 34.1287C6.27969 32.0319 6.08611 29.8523 6.32117 27.6175C6.55623 25.3827 7.1508 23.1893 8.13252 21.0511C9.10042 18.9129 10.3034 17.0368 11.7276 15.4228C12.6955 14.3192 13.774 13.4225 14.9493 12.719C16.1246 12.0154 17.3414 11.5464 18.6134 11.3257C19.8855 11.1049 21.1576 11.1601 22.4574 11.505C23.7433 11.8499 24.9601 12.512 26.0939 13.5191C27.5043 14.7606 28.5136 16.3884 29.1359 18.3887C29.7442 20.389 29.9378 22.61 29.7028 25.0241C29.5783 26.1277 29.8825 27.0105 30.6015 27.6451C31.1546 28.1279 31.846 28.3487 32.6618 28.3211C33.4914 28.2797 34.1413 27.99 34.6252 27.4382C35.0815 26.9278 35.2889 26.307 35.2474 25.6035C35.0815 23.5066 34.5008 21.4512 33.4914 19.4371C32.482 17.423 31.0578 15.6021 29.1912 13.9605C27.366 12.3603 25.4025 11.1739 23.287 10.4152C21.1715 9.65648 19.0559 9.33919 16.9265 9.44955C14.7972 9.57371 12.7231 10.1117 10.6905 11.1049C8.65795 12.0982 6.80512 13.5329 5.13204 15.4228C3.48662 17.2713 2.31132 19.2716 1.57848 21.4098C0.845649 23.548 0.55528 25.6862 0.693551 27.8107C0.831822 29.9489 1.39873 32.0043 2.42194 34.0046C3.44514 36.0049 4.86933 37.7982 6.68068 39.4122C9.12807 41.5642 11.4648 42.9713 13.7048 43.6197C14.6866 43.9094 17.0648 44.5991 19.9823 44.1991C24.49 43.3162 26.5225 41.3159 29.6475 40.3779C33.2425 39.3019 43.6819 44.1991 54.9095 52.9313C56.0987 52.6416 57.3431 52.4485 58.6428 52.4071H58.6567Z" fill="#B370FF" stroke="#B370FF" stroke-width="0.25" stroke-miterlimit="10"/>
</g>
<defs>
<clipPath id="clip0_26_270">
<rect width="174" height="102" fill="white" transform="translate(0.5)"/>
</clipPath>
</defs>
</svg>
